<svg id="5KVBuEBVv" viewBox="0 0 350 140.6620513312519">
  <defs id="SvgjsDefs1113"></defs>
  <g id="SvgjsG1114" fill="green">
    <path
      d="M1.4 40.08 c-0.4 0.04 -0.56 -1.36 -0.24 -1.44 c2.32 -0.6 4.12 -0.96 4.12 -3.92 l0 -17.76 c0 -2.8 -1.64 -3.36 -3.36 -3.6 c-0.32 -0.04 -0.08 -1.36 0.2 -1.36 l11.04 0 c0.28 0 0.48 1.32 0.2 1.36 c-1.68 0.2 -3.28 0.8 -3.28 3.6 l0 17.76 c0 2.28 0.96 3.12 4.28 3.12 c6.04 0 8.44 -2.76 9.4 -4.28 c0.28 -0.44 1.36 -0.24 1.36 0.44 c0 2.04 -1.72 6.08 -4.24 6.08 c-2.24 -0.12 -4.44 -0.24 -7.8 -0.24 c-3.68 0 -8.04 -0.12 -11.68 0.24 z M26.37 40 c-0.32 0 -0.56 -1.32 -0.24 -1.36 c2.04 -0.28 3.32 -1.08 3.32 -3.6 l0 -18.08 c0 -2.52 -1.28 -3.32 -3.32 -3.6 c-0.32 -0.04 -0.08 -1.36 0.24 -1.36 l10.96 0 c0.32 0 0.56 1.32 0.24 1.36 c-1.72 0.24 -3.32 0.8 -3.32 3.6 l0 18.08 c0 2.8 1.6 3.36 3.32 3.6 c0.32 0.04 0.08 1.36 -0.24 1.36 l-10.96 0 z M68.38 12 c0.44 0 0.6 1.28 0.08 1.36 c-1.6 0.24 -2.64 0.88 -4.08 4.24 l-6.76 15.72 c-1.4 3.24 -2.04 5.08 -2.04 6.68 c0 0.24 -2.76 0.88 -2.88 0.6 l-9.72 -22.96 c-1.44 -3.44 -2.52 -4.04 -4.08 -4.28 c-0.52 -0.08 -0.4 -1.36 0.12 -1.36 l10.52 0 c0.52 0 0.6 1.28 0.12 1.36 c-1.48 0.24 -2.96 0.88 -1.56 4.24 l6.76 16.24 l6.76 -16.24 c1.44 -3.44 -0.16 -3.96 -2 -4.24 c-0.52 -0.08 -0.4 -1.36 0.12 -1.36 l8.64 0 z M69.43 40.08 c-0.4 0.04 -0.56 -1.36 -0.24 -1.44 c2.32 -0.6 4.12 -0.96 4.12 -3.92 l0 -17.76 c0 -2.56 -1.64 -3.24 -3.36 -3.68 c-0.32 -0.08 -0.12 -1.4 0.2 -1.36 c2.92 0.32 7.96 0.24 10.4 0.24 c3.64 0 6.28 -0.16 9.56 -0.24 c0.96 0 0.96 0.64 0.76 1.56 l-0.96 3.8 c-0.12 0.56 -1.12 0.56 -1.28 0 c-0.6 -1.96 -1.8 -3.08 -6.8 -3.08 c-2.8 0 -3.72 0.72 -3.72 2.8 l0 6.52 c0 1.04 0.52 1.24 1.32 1.24 l0.88 0 c3.24 0 6.04 -0.32 7.68 -1.8 c0.4 -0.36 1.28 -0.28 0.92 0.52 l-2.28 5.04 c-0.32 0.72 -0.92 0.64 -1.36 0.04 c-0.92 -1.28 -2.96 -1.8 -5.28 -1.8 l-0.56 0 c-0.8 0 -1.32 0.2 -1.32 1.24 l0 6.72 c0 2.28 0.96 3.12 4.28 3.12 c6.04 0 8.44 -2.76 9.4 -4.28 c0.28 -0.44 1.36 -0.24 1.36 0.44 c0 2.04 -1.72 6.08 -4.24 6.08 c-2.24 -0.12 -4.44 -0.24 -7.8 -0.24 c-3.68 0 -8.04 -0.12 -11.68 0.24 z M103.03999999999999 40.64 c-3.28 0 -8.28 -1.44 -7.8 -3.2 l0.4 -1.48 c1.12 -4.2 2.44 1.96 9.04 1.96 c3.36 0 5 -1.64 5 -3.96 c0 -1.88 -1.2 -2.68 -4.04 -4.44 l-3.88 -2.44 c-4.32 -2.72 -6.08 -4.4 -6.08 -7.4 c0 -4.92 4.8 -8.32 9.76 -8.32 c3.04 0 6.92 1.32 6.48 2.68 l-0.48 1.52 c-1.24 3.88 -2.24 -1.48 -7.72 -1.48 c-2.84 0 -4.32 1.44 -4.32 3.56 c0 1.8 1.08 2.8 3.76 4.44 l4.2 2.6 c4.24 2.64 5.96 4.44 5.96 7.32 c0 5 -4.92 8.64 -10.28 8.64 z M120.93 40 c-0.36 0 -0.6 -1.28 -0.28 -1.32 c2.76 -0.36 4.6 -0.92 4.6 -3.08 l0 -19.72 c0 -1 -0.36 -1.32 -1.32 -1.32 l-1.08 0 c-3.8 0 -5.92 0.88 -6.72 2.6 c-0.36 0.8 -1.72 0.68 -1.56 0 c0.36 -1.44 0.68 -2.68 0.92 -4.8 c0.08 -0.76 0.52 -0.72 1.24 -0.64 c1.84 0.2 3.52 0.28 11.12 0.28 s10.28 -0.08 12.2 -0.28 c0.72 -0.08 1.4 -0.12 1.16 0.64 c-0.6 1.88 -1 3.36 -1.24 4.8 c-0.12 0.68 -1.2 0.72 -1.36 0 c-0.4 -1.68 -2.16 -2.6 -5.6 -2.6 l-1.24 0 c-0.96 0 -1.56 0.32 -1.56 1.32 l0 19.72 c0 2.16 1.84 2.72 4.6 3.08 c0.32 0.04 0.08 1.32 -0.28 1.32 l-13.6 0 z M157.14 40.64 c-8.32 0 -14.44 -6.16 -14.44 -14.48 c0 -8.08 5.76 -14.8 14.52 -14.8 c8.36 0 14.44 6.12 14.44 14.44 c0 8.12 -5.72 14.84 -14.52 14.84 z M158.7 37.92 c3.52 0 8.2 -2.32 8.2 -9.88 c0 -8.08 -5.48 -13.96 -11.24 -13.96 c-3.52 0 -8.16 2.32 -8.16 9.84 c0 8.16 5.48 14 11.2 14 z M189.91 40.64 c-6.72 0 -15.8 -3.92 -15.8 -14.12 c0 -6.92 4.24 -15.16 15.44 -15.16 c4.64 0 8.64 1.44 8.16 2.84 l-0.52 1.56 c-1.44 4.28 -3 -1.2 -10.12 -1.2 c-5.72 0 -8.52 3.72 -8.52 9.48 c0 9 6.84 12.76 12.32 12.76 c0.72 0 4.36 -0.56 6.44 -1.88 c0.32 -0.2 1.16 0.72 0.92 1.08 c-1.72 2.52 -7.08 4.64 -8.32 4.64 z M211.51999999999998 38.64 c0.32 0.04 0.08 1.36 -0.24 1.36 l-10.96 0 c-0.32 0 -0.56 -1.32 -0.24 -1.36 c2.04 -0.28 3.32 -1.08 3.32 -3.6 l0 -18.08 c0 -2.52 -1.28 -3.32 -3.32 -3.6 c-0.32 -0.04 -0.08 -1.36 0.24 -1.36 l10.96 0 c0.32 0 0.56 1.32 0.24 1.36 c-1.72 0.24 -3.32 0.8 -3.32 3.6 l0 18.08 c0 2.8 1.6 3.36 3.32 3.6 z M228.51999999999998 39 c0.32 0 0.24 1.08 0 1.16 c-2.52 0.84 -6.08 0.56 -8.52 -2.08 l-11.32 -12.24 l9.04 -9.28 c1.92 -1.96 1.8 -2.84 -0.32 -3.2 c-0.48 -0.08 -0.28 -1.36 0.04 -1.36 l9.2 0 c0.32 0 0.56 1.32 0.16 1.36 c-1.76 0.24 -3.84 1.04 -6.36 3.64 l-7.08 7.28 l10.32 11.08 c2.6 2.76 4 3.64 4.84 3.64 z">
    </path>
  </g>
  <g id="SvgjsG1115" featurekey="nameFeature-1"
    transform="matrix(1.9608915928961448,0,0,1.9608915928961448,-3.1548622584918737,32.39003966305383)"
    fill="darkgreen">
    <path
      d="M37.24 38.64 c0.32 0.04 0.08 1.36 -0.2 1.36 l-10.44 0 c-0.28 0 -0.48 -1.32 -0.24 -1.36 c1.68 -0.28 2.92 -1.08 2.8 -3.6 l-0.76 -13.44 l-6.48 13.2 c-0.84 1.72 -1.48 3.48 -1.6 4.12 c-0.08 0.48 -0.92 0.72 -1.56 0.72 c-0.6 0 -1 -0.24 -1.24 -0.72 l-9.24 -17.52 l-0.6 13.64 c-0.12 2.8 1.52 3.44 2.8 3.6 c0.32 0.04 0.08 1.36 -0.2 1.36 l-8.28 0 c-0.32 0 -0.56 -1.32 -0.24 -1.36 c1.72 -0.2 3.16 -0.8 3.32 -3.6 l1.28 -22.96 c0.04 -0.68 1.56 -0.72 1.96 0 l11.6 21.68 l10.76 -21.68 c0.36 -0.72 1.96 -0.68 2 0 l1.28 22.96 c0.16 2.8 1.6 3.4 3.28 3.6 z M67.92999999999999 38.64 c0.56 0.08 0.4 1.36 -0.08 1.36 l-10.56 0 c-0.52 0 -0.56 -1.28 -0.12 -1.36 c1.48 -0.28 3.08 -0.8 1.6 -4.24 l-0.44 -1 c-0.4 -0.96 -1.08 -1.04 -2.28 -1.04 l-8.16 0 c-1.2 0 -1.88 0.08 -2.28 1.04 l-0.4 1 c-1.4 3.44 0.12 3.96 2.04 4.24 c0.52 0.08 0.4 1.36 -0.12 1.36 l-8.64 0 c-0.48 0 -0.6 -1.28 -0.12 -1.36 c1.64 -0.28 2.6 -0.84 4.08 -4.24 l6.76 -15.52 c1.56 -3.52 2.04 -5.16 2.04 -6.68 c0 -0.24 2.8 -0.88 2.92 -0.6 l9.76 22.76 c1.44 3.4 2.4 4.04 4 4.28 z M55.769999999999996 30.119999999999997 c0.56 0 1.16 -0.08 0.92 -0.64 l-4.68 -11.2 l-4.72 11.2 c-0.24 0.56 0.36 0.64 0.92 0.64 l7.56 0 z M98.34 39 c0.32 0 0.24 1.08 0 1.16 c-2.52 0.84 -6 0.72 -8.4 -2.36 l-6.16 -7.92 c-1.72 -2.24 -3.76 -2.56 -6.56 -2.6 l0 7.76 c0 2.8 1.92 3.28 4.48 3.6 c0.28 0.04 0.08 1.36 -0.24 1.36 l-12.12 0 c-0.32 0 -0.56 -1.32 -0.24 -1.36 c2.04 -0.28 3.32 -1.08 3.32 -3.6 l0 -17.84 c0 -2.64 -1.4 -3.4 -3.32 -3.92 c-0.32 -0.08 -0.12 -1.4 0.24 -1.36 c1.56 0.2 3.32 0.24 4.6 0.24 c2.96 0 5.72 -0.24 7.64 -0.24 c6.04 0 10.08 2.48 10.08 7.4 c0 4.64 -3.76 6.92 -7.12 7.12 l0 0.2 c1.6 0 2.76 0.68 4.52 2.88 l5.96 7.48 c1.24 1.56 2.44 2 3.32 2 z M78.38 25.439999999999998 c5.96 0 8.24 -1.04 8.24 -5.04 c0 -4.28 -2.72 -6.4 -6.28 -6.4 c-2.36 0 -3.12 0.96 -3.12 3.2 l0 8.24 l1.16 0 z M110.39 38.64 c0.32 0.04 0.08 1.36 -0.24 1.36 l-10.96 0 c-0.32 0 -0.56 -1.32 -0.24 -1.36 c2.04 -0.28 3.32 -1.08 3.32 -3.6 l0 -18.08 c0 -2.52 -1.28 -3.32 -3.32 -3.6 c-0.32 -0.04 -0.08 -1.36 0.24 -1.36 l10.96 0 c0.32 0 0.56 1.32 0.24 1.36 c-1.72 0.24 -3.32 0.8 -3.32 3.6 l0 18.08 c0 2.8 1.6 3.36 3.32 3.6 z M127.39 39 c0.32 0 0.24 1.08 0 1.16 c-2.52 0.84 -6.08 0.56 -8.52 -2.08 l-11.32 -12.24 l9.04 -9.28 c1.92 -1.96 1.8 -2.84 -0.32 -3.2 c-0.48 -0.08 -0.28 -1.36 0.04 -1.36 l9.2 0 c0.32 0 0.56 1.32 0.16 1.36 c-1.76 0.24 -3.84 1.04 -6.36 3.64 l-7.08 7.28 l10.32 11.08 c2.6 2.76 4 3.64 4.84 3.64 z M128.84 40.08 c-0.4 0.04 -0.56 -1.36 -0.24 -1.44 c2.32 -0.6 4.12 -0.96 4.12 -3.92 l0 -17.76 c0 -2.56 -1.64 -3.24 -3.36 -3.68 c-0.32 -0.08 -0.12 -1.4 0.2 -1.36 c2.92 0.32 7.96 0.24 10.4 0.24 c3.64 0 6.28 -0.16 9.56 -0.24 c0.96 0 0.96 0.64 0.76 1.56 l-0.96 3.8 c-0.12 0.56 -1.12 0.56 -1.28 0 c-0.6 -1.96 -1.8 -3.08 -6.8 -3.08 c-2.8 0 -3.72 0.72 -3.72 2.8 l0 6.52 c0 1.04 0.52 1.24 1.32 1.24 l0.88 0 c3.24 0 6.04 -0.32 7.68 -1.8 c0.4 -0.36 1.28 -0.28 0.92 0.52 l-2.28 5.04 c-0.32 0.72 -0.92 0.64 -1.36 0.04 c-0.92 -1.28 -2.96 -1.8 -5.28 -1.8 l-0.56 0 c-0.8 0 -1.32 0.2 -1.32 1.24 l0 6.72 c0 2.28 0.96 3.12 4.28 3.12 c6.04 0 8.44 -2.76 9.4 -4.28 c0.28 -0.44 1.36 -0.24 1.36 0.44 c0 2.04 -1.72 6.08 -4.24 6.08 c-2.24 -0.12 -4.44 -0.24 -7.8 -0.24 c-3.68 0 -8.04 -0.12 -11.68 0.24 z M159.77 40 c-0.36 0 -0.6 -1.28 -0.28 -1.32 c2.76 -0.36 4.6 -0.92 4.6 -3.08 l0 -19.72 c0 -1 -0.36 -1.32 -1.32 -1.32 l-1.08 0 c-3.8 0 -5.92 0.88 -6.72 2.6 c-0.36 0.8 -1.72 0.68 -1.56 0 c0.36 -1.44 0.68 -2.68 0.92 -4.8 c0.08 -0.76 0.52 -0.72 1.24 -0.64 c1.84 0.2 3.52 0.28 11.12 0.28 s10.28 -0.08 12.2 -0.28 c0.72 -0.08 1.4 -0.12 1.16 0.64 c-0.6 1.88 -1 3.36 -1.24 4.8 c-0.12 0.68 -1.2 0.72 -1.36 0 c-0.4 -1.68 -2.16 -2.6 -5.6 -2.6 l-1.24 0 c-0.96 0 -1.56 0.32 -1.56 1.32 l0 19.72 c0 2.16 1.84 2.72 4.6 3.08 c0.32 0.04 0.08 1.32 -0.28 1.32 l-13.6 0 z">
    </path>
  </g>
  <g id="SvgjsG1116" featurekey="sloganFeature-0"
    transform="matrix(0.579502465037995,0,0,0.579502465037995,34.71321330392826,128.87799828057473)" fill="#111111">
    <path
      d="M0.7 20.04 c-0.2 0.02 -0.28 -0.6 -0.12 -0.64 c1.18 -0.3 2.08 -0.48 2.08 -1.96 l0 -8.96 c0 -1.34 -0.82 -1.68 -1.7 -1.9 c-0.16 -0.04 -0.08 -0.64 0.12 -0.62 c1.46 0.12 3.6 0.12 5.08 0.12 c1.82 0 3.18 -0.08 4.76 -0.12 c0.46 0 0.46 0.32 0.36 0.76 l-0.5 1.9 c-0.06 0.26 -0.54 0.26 -0.62 0 c-0.28 -0.94 -0.92 -1.6 -3.46 -1.6 c-1.5 0 -1.96 0.36 -1.96 1.46 l0 3.52 c0 0.52 0.26 0.62 0.66 0.62 l0.38 0 c1.78 0 3.12 -0.12 4 -0.96 c0.18 -0.18 0.6 -0.14 0.44 0.24 l-1.18 2.52 c-0.14 0.34 -0.42 0.3 -0.64 0 c-0.48 -0.62 -1.52 -0.86 -2.78 -0.86 l-0.22 0 c-0.4 0 -0.66 0.1 -0.66 0.62 l0 3.26 c0 1.48 0.96 1.64 2.56 1.96 c0.18 0.04 0.08 0.66 -0.12 0.64 c-1.32 -0.12 -2.44 -0.12 -3.48 -0.12 s-2.04 0.02 -3 0.12 z M30.631999999999998 19.36 c0.28 0.04 0.2 0.64 -0.04 0.64 l-4.98 0 c-0.26 0 -0.3 -0.6 -0.06 -0.64 c0.76 -0.12 1.52 -0.42 0.78 -2.16 l-0.3 -0.7 c-0.18 -0.46 -0.62 -0.48 -1.26 -0.48 l-4.16 0 c-0.6 0 -1.04 0.02 -1.22 0.48 l-0.28 0.7 c-0.74 1.78 0.02 2.02 1.02 2.16 c0.24 0.04 0.2 0.64 -0.06 0.64 l-4.22 0 c-0.26 0 -0.32 -0.6 -0.06 -0.64 c0.84 -0.12 1.32 -0.44 2.06 -2.16 l3.38 -7.7 c0.78 -1.76 1.02 -2.64 1.02 -3.4 c0 -0.12 1.42 -0.44 1.48 -0.3 l4.88 11.38 c0.74 1.74 1.22 2.06 2.02 2.18 z M24.772 15 c0.3 0 0.64 -0.04 0.52 -0.3 l-2.56 -6.08 l-2.56 6.08 c-0.12 0.26 0.2 0.3 0.5 0.3 l4.1 0 z M49.244 19.54 c0.16 0 0.14 0.5 0 0.56 c-1.12 0.42 -2.78 0.28 -3.88 -1.14 l-3.12 -4 c-0.84 -1.08 -1.94 -1.28 -3.4 -1.3 l0 3.92 c0 1.4 0.92 1.64 2.26 1.8 c0.14 0.02 0.04 0.62 -0.12 0.62 l-5.78 0 c-0.16 0 -0.28 -0.6 -0.12 -0.62 c0.98 -0.14 1.68 -0.5 1.68 -1.8 l0 -9.04 c0 -1.32 -0.7 -1.7 -1.68 -1.96 c-0.16 -0.04 -0.06 -0.64 0.12 -0.62 c0.8 0.1 1.68 0.12 2.28 0.12 c1.34 0 2.62 -0.12 3.54 -0.12 c2.86 0 4.96 1.2 4.96 3.7 c0 2.38 -1.98 3.52 -3.5 3.62 l0 0.1 c0.74 0 1.24 0.32 2.08 1.38 l3.08 3.84 c0.56 0.72 1.1 0.94 1.6 0.94 z M39.464 12.8 c3 0 4.32 -0.52 4.32 -2.62 c0 -2.18 -1.44 -3.26 -3.28 -3.26 c-1.22 0 -1.66 0.48 -1.66 1.62 l0 4.26 l0.62 0 z M70.95599999999999 19.38 c0.16 0.02 0.04 0.62 -0.12 0.62 l-4.84 0 c-0.14 0 -0.26 -0.6 -0.12 -0.62 c0.74 -0.12 1.4 -0.46 1.34 -1.8 l-0.36 -7.24 l-3.5 7.12 c-0.36 0.74 -0.72 1.64 -0.78 2 c-0.04 0.22 -0.38 0.36 -0.66 0.36 s-0.44 -0.12 -0.56 -0.36 l-4.76 -9.04 l-0.3 7.16 c-0.06 1.34 0.62 1.72 1.34 1.8 c0.16 0.02 0.04 0.62 -0.1 0.62 l-3.98 0 c-0.16 0 -0.28 -0.6 -0.12 -0.62 c0.86 -0.1 1.62 -0.4 1.68 -1.8 l0.6 -11.56 c0.02 -0.3 0.7 -0.32 0.86 0 l5.82 11 l5.44 -11 c0.16 -0.32 0.84 -0.3 0.86 0 l0.6 11.56 c0.06 1.4 0.78 1.7 1.66 1.8 z M75.428 20.04 c-0.2 0.02 -0.28 -0.6 -0.12 -0.64 c1.18 -0.3 2.08 -0.48 2.08 -1.96 l0 -8.96 c0 -1.34 -0.82 -1.68 -1.7 -1.9 c-0.16 -0.04 -0.08 -0.64 0.12 -0.62 c1.46 0.12 3.6 0.12 5.08 0.12 c1.82 0 3.18 -0.08 4.76 -0.12 c0.46 0 0.46 0.32 0.36 0.76 l-0.5 1.9 c-0.06 0.26 -0.54 0.26 -0.62 0 c-0.28 -0.94 -0.92 -1.6 -3.46 -1.6 c-1.5 0 -1.96 0.36 -1.96 1.46 l0 3.32 c0 0.52 0.26 0.62 0.66 0.62 l0.38 0 c1.78 0 3.12 -0.12 4 -0.96 c0.18 -0.18 0.6 -0.14 0.44 0.24 l-1.18 2.52 c-0.14 0.34 -0.42 0.3 -0.64 0 c-0.48 -0.62 -1.52 -0.86 -2.78 -0.86 l-0.22 0 c-0.4 0 -0.66 0.1 -0.66 0.62 l0 3.46 c0 1.16 0.52 1.54 2.24 1.54 c3.24 0 4.28 -1.3 4.78 -2.14 c0.16 -0.26 0.64 -0.2 0.64 0.18 c0 1.1 -0.84 3 -2.06 3.02 c-0.96 -0.06 -2.24 -0.12 -3.96 -0.12 c-1.84 0 -3.84 -0.06 -5.68 0.12 z M105.85999999999999 19.54 c0.16 0 0.14 0.5 0 0.56 c-1.12 0.42 -2.78 0.28 -3.88 -1.14 l-3.12 -4 c-0.84 -1.08 -1.94 -1.28 -3.4 -1.3 l0 3.92 c0 1.4 0.92 1.64 2.26 1.8 c0.14 0.02 0.04 0.62 -0.12 0.62 l-5.78 0 c-0.16 0 -0.28 -0.6 -0.12 -0.62 c0.98 -0.14 1.68 -0.5 1.68 -1.8 l0 -9.04 c0 -1.32 -0.7 -1.7 -1.68 -1.96 c-0.16 -0.04 -0.06 -0.64 0.12 -0.62 c0.8 0.1 1.68 0.12 2.28 0.12 c1.34 0 2.62 -0.12 3.54 -0.12 c2.86 0 4.96 1.2 4.96 3.7 c0 2.38 -1.98 3.52 -3.5 3.62 l0 0.1 c0.74 0 1.24 0.32 2.08 1.38 l3.08 3.84 c0.56 0.72 1.1 0.94 1.6 0.94 z M96.08 12.8 c3 0 4.32 -0.52 4.32 -2.62 c0 -2.18 -1.44 -3.26 -3.28 -3.26 c-1.22 0 -1.66 0.48 -1.66 1.62 l0 4.26 l0.62 0 z M114.232 20.32 c-1.66 0 -4.06 -0.76 -3.84 -1.6 l0.18 -0.7 c0.54 -1.94 1.14 0.98 4.44 0.98 c1.74 0 2.72 -0.84 2.72 -2.1 c0 -1.04 -0.76 -1.5 -2.04 -2.26 l-2.24 -1.36 c-2.04 -1.24 -2.84 -2.12 -2.84 -3.5 c0 -2.38 2.28 -4.1 4.82 -4.1 c1.54 0 3.42 0.64 3.22 1.32 l-0.24 0.74 c-0.56 1.8 -1.08 -0.76 -3.82 -0.76 c-1.54 0 -2.32 0.8 -2.32 1.88 c0 0.88 0.54 1.4 1.88 2.22 l2.34 1.4 c2.04 1.22 2.86 2.14 2.86 3.52 c0 2.44 -2.44 4.32 -5.12 4.32 z M126.584 5.68 c-0.28 1.56 -0.58 3.32 -0.86 4.86 c-0.06 0.34 -1.2 0.54 -1.18 0.22 c0.06 -1.52 0.1 -3.24 0.14 -4.76 c0.02 -0.56 2 -0.88 1.9 -0.32 z M138.06799999999998 20.04 c-0.2 0.02 -0.28 -0.6 -0.12 -0.64 c1.18 -0.3 2.08 -0.48 2.08 -1.96 l0 -9.02 c0 -1.4 -0.82 -1.68 -1.7 -1.8 c-0.16 -0.02 -0.04 -0.62 0.1 -0.62 l5.22 0 c0.16 0 0.26 0.6 0.12 0.62 c-0.86 0.1 -1.66 0.4 -1.66 1.8 l0 9.02 c0 1.16 0.52 1.54 2.24 1.54 c3.24 0 4.28 -1.3 4.78 -2.14 c0.16 -0.26 0.64 -0.2 0.64 0.18 c0 1.1 -0.84 3 -2.06 3.02 c-0.96 -0.06 -2.24 -0.12 -3.96 -0.12 c-1.84 0 -3.84 -0.06 -5.68 0.12 z M154.26 20 c-0.16 0 -0.28 -0.6 -0.12 -0.62 c0.98 -0.14 1.68 -0.5 1.68 -1.8 l0 -9.16 c0 -1.3 -0.7 -1.66 -1.68 -1.8 c-0.16 -0.02 -0.04 -0.62 0.12 -0.62 l5.18 0 c0.16 0 0.28 0.6 0.12 0.62 c-0.86 0.12 -1.66 0.4 -1.66 1.8 l0 9.16 c0 1.4 0.8 1.68 1.66 1.8 c0.16 0.02 0.04 0.62 -0.12 0.62 l-5.18 0 z M178.892 6 c0.22 0 0.3 0.6 0.04 0.64 c-0.82 0.12 -1.32 0.44 -2.06 2.16 l-3.38 7.8 c-0.72 1.68 -1.02 2.6 -1.02 3.4 c0 0.12 -1.4 0.44 -1.46 0.3 l-4.86 -11.48 c-0.72 -1.76 -1.3 -2.06 -2.06 -2.18 c-0.26 -0.04 -0.2 -0.64 0.06 -0.64 l4.96 0 c0.26 0 0.32 0.6 0.06 0.64 c-0.74 0.16 -1.48 0.42 -0.76 2.16 l3.58 8.66 l3.62 -8.66 c0.74 -1.76 -0.06 -1.96 -1 -2.16 c-0.26 -0.04 -0.2 -0.64 0.06 -0.64 l4.22 0 z M183.284 20.04 c-0.2 0.02 -0.28 -0.6 -0.12 -0.64 c1.18 -0.3 2.08 -0.48 2.08 -1.96 l0 -8.96 c0 -1.34 -0.82 -1.68 -1.7 -1.9 c-0.16 -0.04 -0.08 -0.64 0.12 -0.62 c1.46 0.12 3.6 0.12 5.08 0.12 c1.82 0 3.18 -0.08 4.76 -0.12 c0.46 0 0.46 0.32 0.36 0.76 l-0.5 1.9 c-0.06 0.26 -0.54 0.26 -0.62 0 c-0.28 -0.94 -0.92 -1.6 -3.46 -1.6 c-1.5 0 -1.96 0.36 -1.96 1.46 l0 3.32 c0 0.52 0.26 0.62 0.66 0.62 l0.38 0 c1.78 0 3.12 -0.12 4 -0.96 c0.18 -0.18 0.6 -0.14 0.44 0.24 l-1.18 2.52 c-0.14 0.34 -0.42 0.3 -0.64 0 c-0.48 -0.62 -1.52 -0.86 -2.78 -0.86 l-0.22 0 c-0.4 0 -0.66 0.1 -0.66 0.62 l0 3.46 c0 1.16 0.52 1.54 2.24 1.54 c3.24 0 4.28 -1.3 4.78 -2.14 c0.16 -0.26 0.64 -0.2 0.64 0.18 c0 1.1 -0.84 3 -2.06 3.02 c-0.96 -0.06 -2.24 -0.12 -3.96 -0.12 c-1.84 0 -3.84 -0.06 -5.68 0.12 z M203.73600000000002 20.32 c-1.66 0 -4.06 -0.76 -3.84 -1.6 l0.18 -0.7 c0.54 -1.94 1.14 0.98 4.44 0.98 c1.74 0 2.72 -0.84 2.72 -2.1 c0 -1.04 -0.76 -1.5 -2.04 -2.26 l-2.24 -1.36 c-2.04 -1.24 -2.84 -2.12 -2.84 -3.5 c0 -2.38 2.28 -4.1 4.82 -4.1 c1.54 0 3.42 0.64 3.22 1.32 l-0.24 0.74 c-0.56 1.8 -1.08 -0.76 -3.82 -0.76 c-1.54 0 -2.32 0.8 -2.32 1.88 c0 0.88 0.54 1.4 1.88 2.22 l2.34 1.4 c2.04 1.22 2.86 2.14 2.86 3.52 c0 2.44 -2.44 4.32 -5.12 4.32 z M216.58800000000002 20 c-0.18 0 -0.3 -0.58 -0.14 -0.6 c1.36 -0.16 2.28 -0.46 2.28 -1.54 l0 -10.02 c0 -0.48 -0.16 -0.64 -0.64 -0.64 l-0.64 0 c-2.02 0 -2.92 0.34 -3.38 1.3 c-0.18 0.36 -0.78 0.3 -0.72 0 c0.16 -0.78 0.32 -1.32 0.44 -2.34 c0.04 -0.34 0.28 -0.32 0.62 -0.28 c0.76 0.08 1.76 0.12 5.46 0.12 s5.18 -0.04 5.94 -0.12 c0.36 -0.04 0.7 -0.06 0.58 0.28 c-0.28 0.92 -0.48 1.58 -0.6 2.34 c-0.06 0.34 -0.56 0.32 -0.62 0 c-0.2 -0.94 -1.02 -1.3 -2.8 -1.3 l-0.72 0 c-0.48 0 -0.76 0.16 -0.76 0.64 l0 10.02 c0 1.08 0.94 1.38 2.28 1.54 c0.16 0.02 0.04 0.6 -0.14 0.6 l-6.44 0 z M238.18000000000004 20.32 c-4.16 0 -7.18 -3.1 -7.18 -7.26 c0 -4.02 2.84 -7.38 7.22 -7.38 c4.18 0 7.18 3.1 7.18 7.24 c0 4.04 -2.82 7.4 -7.22 7.4 z M238.92000000000004 19.1 c1.84 0 4.42 -1.18 4.42 -5.14 c0 -4.14 -2.84 -7.06 -5.84 -7.06 c-1.86 0 -4.42 1.18 -4.42 5.12 c0 4.18 2.82 7.08 5.84 7.08 z M258.452 20.32 c-3.36 0 -7.96 -1.98 -7.96 -7.08 c0 -3.5 2.16 -7.56 7.68 -7.56 c2.28 0 4.3 0.7 4.06 1.4 l-0.24 0.74 c-0.62 1.9 -1.54 -0.68 -4.96 -0.68 c-2.92 0 -4.52 1.88 -4.52 4.92 c0 4.48 3.4 6.5 6.34 6.5 c0.34 0 1.98 -0.26 3.22 -1.04 c0.16 -0.1 0.54 0.3 0.42 0.48 c-0.86 1.24 -3.48 2.32 -4.04 2.32 z M272.704 19.38 c0.16 0.02 0.04 0.62 -0.12 0.62 l-5.18 0 c-0.16 0 -0.28 -0.6 -0.12 -0.62 c0.98 -0.14 1.68 -0.5 1.68 -1.8 l0 -9.16 c0 -1.3 -0.7 -1.66 -1.68 -1.8 c-0.16 -0.02 -0.04 -0.62 0.12 -0.62 l5.18 0 c0.16 0 0.28 0.6 0.12 0.62 c-0.86 0.12 -1.66 0.4 -1.66 1.8 l0 9.16 c0 1.4 0.8 1.68 1.66 1.8 z M281.004 19.54 c0.16 0 0.12 0.5 0 0.56 c-1.14 0.42 -2.82 0.18 -3.98 -1.06 l-5.74 -6.14 l4.56 -4.62 c1.04 -1.04 0.98 -1.5 -0.08 -1.66 c-0.26 -0.04 -0.14 -0.62 0.02 -0.62 l4.4 0 c0.16 0 0.28 0.6 0.08 0.62 c-0.9 0.1 -1.86 0.54 -3.18 1.88 l-3.7 3.76 l5.22 5.52 c1.26 1.3 1.96 1.76 2.4 1.76 z M310.08799999999997 19.38 c0.16 0.02 0.04 0.62 -0.12 0.62 l-4.84 0 c-0.14 0 -0.26 -0.6 -0.12 -0.62 c0.74 -0.12 1.4 -0.46 1.34 -1.8 l-0.36 -7.24 l-3.5 7.12 c-0.36 0.74 -0.72 1.64 -0.78 2 c-0.04 0.22 -0.38 0.36 -0.66 0.36 s-0.44 -0.12 -0.56 -0.36 l-4.76 -9.04 l-0.3 7.16 c-0.06 1.34 0.62 1.72 1.34 1.8 c0.16 0.02 0.04 0.62 -0.1 0.62 l-3.98 0 c-0.16 0 -0.28 -0.6 -0.12 -0.62 c0.86 -0.1 1.62 -0.4 1.68 -1.8 l0.6 -11.56 c0.02 -0.3 0.7 -0.32 0.86 0 l5.82 11 l5.44 -11 c0.16 -0.32 0.84 -0.3 0.86 0 l0.6 11.56 c0.06 1.4 0.78 1.7 1.66 1.8 z M329.36 19.36 c0.28 0.04 0.2 0.64 -0.04 0.64 l-4.98 0 c-0.26 0 -0.3 -0.6 -0.06 -0.64 c0.76 -0.12 1.52 -0.42 0.78 -2.16 l-0.3 -0.7 c-0.18 -0.46 -0.62 -0.48 -1.26 -0.48 l-4.16 0 c-0.6 0 -1.04 0.02 -1.22 0.48 l-0.28 0.7 c-0.74 1.78 0.02 2.02 1.02 2.16 c0.24 0.04 0.2 0.64 -0.06 0.64 l-4.22 0 c-0.26 0 -0.32 -0.6 -0.06 -0.64 c0.84 -0.12 1.32 -0.44 2.06 -2.16 l3.38 -7.7 c0.78 -1.76 1.02 -2.64 1.02 -3.4 c0 -0.12 1.42 -0.44 1.48 -0.3 l4.88 11.38 c0.74 1.74 1.22 2.06 2.02 2.18 z M323.5 15 c0.3 0 0.64 -0.04 0.52 -0.3 l-2.56 -6.08 l-2.56 6.08 c-0.12 0.26 0.2 0.3 0.5 0.3 l4.1 0 z M347.97200000000004 19.54 c0.16 0 0.14 0.5 0 0.56 c-1.12 0.42 -2.78 0.28 -3.88 -1.14 l-3.12 -4 c-0.84 -1.08 -1.94 -1.28 -3.4 -1.3 l0 3.92 c0 1.4 0.92 1.64 2.26 1.8 c0.14 0.02 0.04 0.62 -0.12 0.62 l-5.78 0 c-0.16 0 -0.28 -0.6 -0.12 -0.62 c0.98 -0.14 1.68 -0.5 1.68 -1.8 l0 -9.04 c0 -1.32 -0.7 -1.7 -1.68 -1.96 c-0.16 -0.04 -0.06 -0.64 0.12 -0.62 c0.8 0.1 1.68 0.12 2.28 0.12 c1.34 0 2.62 -0.12 3.54 -0.12 c2.86 0 4.96 1.2 4.96 3.7 c0 2.38 -1.98 3.52 -3.5 3.62 l0 0.1 c0.74 0 1.24 0.32 2.08 1.38 l3.08 3.84 c0.56 0.72 1.1 0.94 1.6 0.94 z M338.192 12.8 c3 0 4.32 -0.52 4.32 -2.62 c0 -2.18 -1.44 -3.26 -3.28 -3.26 c-1.22 0 -1.66 0.48 -1.66 1.62 l0 4.26 l0.62 0 z M357.584 19.38 c0.16 0.02 0.04 0.62 -0.12 0.62 l-5.18 0 c-0.16 0 -0.28 -0.6 -0.12 -0.62 c0.98 -0.14 1.68 -0.5 1.68 -1.8 l0 -9.16 c0 -1.3 -0.7 -1.66 -1.68 -1.8 c-0.16 -0.02 -0.04 -0.62 0.12 -0.62 l5.18 0 c0.16 0 0.28 0.6 0.12 0.62 c-0.86 0.12 -1.66 0.4 -1.66 1.8 l0 9.16 c0 1.4 0.8 1.68 1.66 1.8 z M365.884 19.54 c0.16 0 0.12 0.5 0 0.56 c-1.14 0.42 -2.82 0.18 -3.98 -1.06 l-5.74 -6.14 l4.56 -4.62 c1.04 -1.04 0.98 -1.5 -0.08 -1.66 c-0.26 -0.04 -0.14 -0.62 0.02 -0.62 l4.4 0 c0.16 0 0.28 0.6 0.08 0.62 c-0.9 0.1 -1.86 0.54 -3.18 1.88 l-3.7 3.76 l5.22 5.52 c1.26 1.3 1.96 1.76 2.4 1.76 z M370.476 20.04 c-0.2 0.02 -0.28 -0.6 -0.12 -0.64 c1.18 -0.3 2.08 -0.48 2.08 -1.96 l0 -8.96 c0 -1.34 -0.82 -1.68 -1.7 -1.9 c-0.16 -0.04 -0.08 -0.64 0.12 -0.62 c1.46 0.12 3.6 0.12 5.08 0.12 c1.82 0 3.18 -0.08 4.76 -0.12 c0.46 0 0.46 0.32 0.36 0.76 l-0.5 1.9 c-0.06 0.26 -0.54 0.26 -0.62 0 c-0.28 -0.94 -0.92 -1.6 -3.46 -1.6 c-1.5 0 -1.96 0.36 -1.96 1.46 l0 3.32 c0 0.52 0.26 0.62 0.66 0.62 l0.38 0 c1.78 0 3.12 -0.12 4 -0.96 c0.18 -0.18 0.6 -0.14 0.44 0.24 l-1.18 2.52 c-0.14 0.34 -0.42 0.3 -0.64 0 c-0.48 -0.62 -1.52 -0.86 -2.78 -0.86 l-0.22 0 c-0.4 0 -0.66 0.1 -0.66 0.62 l0 3.46 c0 1.16 0.52 1.54 2.24 1.54 c3.24 0 4.28 -1.3 4.78 -2.14 c0.16 -0.26 0.64 -0.2 0.64 0.18 c0 1.1 -0.84 3 -2.06 3.02 c-0.96 -0.06 -2.24 -0.12 -3.96 -0.12 c-1.84 0 -3.84 -0.06 -5.68 0.12 z M389.70799999999997 20 c-0.18 0 -0.3 -0.58 -0.14 -0.6 c1.36 -0.16 2.28 -0.46 2.28 -1.54 l0 -10.02 c0 -0.48 -0.16 -0.64 -0.64 -0.64 l-0.64 0 c-2.02 0 -2.92 0.34 -3.38 1.3 c-0.18 0.36 -0.78 0.3 -0.72 0 c0.16 -0.78 0.32 -1.32 0.44 -2.34 c0.04 -0.34 0.28 -0.32 0.62 -0.28 c0.76 0.08 1.76 0.12 5.46 0.12 s5.18 -0.04 5.94 -0.12 c0.36 -0.04 0.7 -0.06 0.58 0.28 c-0.28 0.92 -0.48 1.58 -0.6 2.34 c-0.06 0.34 -0.56 0.32 -0.62 0 c-0.2 -0.94 -1.02 -1.3 -2.8 -1.3 l-0.72 0 c-0.48 0 -0.76 0.16 -0.76 0.64 l0 10.02 c0 1.08 0.94 1.38 2.28 1.54 c0.16 0.02 0.04 0.6 -0.14 0.6 l-6.44 0 z M415.4 10.24 c0 3.62 -3.34 5.04 -7.74 4.34 l0 3 c0 1.4 0.92 1.64 2.26 1.8 c0.14 0.02 0.04 0.62 -0.12 0.62 l-5.78 0 c-0.16 0 -0.28 -0.6 -0.12 -0.62 c0.98 -0.14 1.68 -0.5 1.68 -1.8 l0 -9.04 c0 -1.32 -0.7 -1.7 -1.68 -1.96 c-0.16 -0.04 -0.06 -0.64 0.12 -0.62 c0.8 0.1 1.68 0.12 2.28 0.12 c1.34 0 2.54 -0.12 3.58 -0.12 c2.98 0 5.52 1.12 5.52 4.28 z M409.46 6.92 c-1.4 0 -1.8 0.46 -1.8 1.62 l0 5.16 c3.54 0.48 5.5 -0.24 5.5 -3.02 c0 -2.6 -1.7 -3.76 -3.7 -3.76 z M419.99199999999996 20.04 c-0.2 0.02 -0.28 -0.6 -0.12 -0.64 c1.18 -0.3 2.08 -0.48 2.08 -1.96 l0 -9.02 c0 -1.4 -0.82 -1.68 -1.7 -1.8 c-0.16 -0.02 -0.04 -0.62 0.1 -0.62 l5.22 0 c0.16 0 0.26 0.6 0.12 0.62 c-0.86 0.1 -1.66 0.4 -1.66 1.8 l0 9.02 c0 1.16 0.52 1.54 2.24 1.54 c3.24 0 4.28 -1.3 4.78 -2.14 c0.16 -0.26 0.64 -0.2 0.64 0.18 c0 1.1 -0.84 3 -2.06 3.02 c-0.96 -0.06 -2.24 -0.12 -3.96 -0.12 c-1.84 0 -3.84 -0.06 -5.68 0.12 z M450.68399999999997 19.36 c0.28 0.04 0.2 0.64 -0.04 0.64 l-4.98 0 c-0.26 0 -0.3 -0.6 -0.06 -0.64 c0.76 -0.12 1.52 -0.42 0.78 -2.16 l-0.3 -0.7 c-0.18 -0.46 -0.62 -0.48 -1.26 -0.48 l-4.16 0 c-0.6 0 -1.04 0.02 -1.22 0.48 l-0.28 0.7 c-0.74 1.78 0.02 2.02 1.02 2.16 c0.24 0.04 0.2 0.64 -0.06 0.64 l-4.22 0 c-0.26 0 -0.32 -0.6 -0.06 -0.64 c0.84 -0.12 1.32 -0.44 2.06 -2.16 l3.38 -7.7 c0.78 -1.76 1.02 -2.64 1.02 -3.4 c0 -0.12 1.42 -0.44 1.48 -0.3 l4.88 11.38 c0.74 1.74 1.22 2.06 2.02 2.18 z M444.82399999999996 15 c0.3 0 0.64 -0.04 0.52 -0.3 l-2.56 -6.08 l-2.56 6.08 c-0.12 0.26 0.2 0.3 0.5 0.3 l4.1 0 z M463.316 20.32 c-3.36 0 -7.96 -1.98 -7.96 -7.08 c0 -3.5 2.16 -7.56 7.68 -7.56 c2.28 0 4.3 0.7 4.06 1.4 l-0.24 0.74 c-0.62 1.9 -1.54 -0.68 -4.96 -0.68 c-2.92 0 -4.52 1.88 -4.52 4.92 c0 4.48 3.4 6.5 6.34 6.5 c0.34 0 1.98 -0.26 3.22 -1.04 c0.16 -0.1 0.54 0.3 0.42 0.48 c-0.86 1.24 -3.48 2.32 -4.04 2.32 z M471.96799999999996 20.04 c-0.2 0.02 -0.28 -0.6 -0.12 -0.64 c1.18 -0.3 2.08 -0.48 2.08 -1.96 l0 -8.96 c0 -1.34 -0.82 -1.68 -1.7 -1.9 c-0.16 -0.04 -0.08 -0.64 0.12 -0.62 c1.46 0.12 3.6 0.12 5.08 0.12 c1.82 0 3.18 -0.08 4.76 -0.12 c0.46 0 0.46 0.32 0.36 0.76 l-0.5 1.9 c-0.06 0.26 -0.54 0.26 -0.62 0 c-0.28 -0.94 -0.92 -1.6 -3.46 -1.6 c-1.5 0 -1.96 0.36 -1.96 1.46 l0 3.32 c0 0.52 0.26 0.62 0.66 0.62 l0.38 0 c1.78 0 3.12 -0.12 4 -0.96 c0.18 -0.18 0.6 -0.14 0.44 0.24 l-1.18 2.52 c-0.14 0.34 -0.42 0.3 -0.64 0 c-0.48 -0.62 -1.52 -0.86 -2.78 -0.86 l-0.22 0 c-0.4 0 -0.66 0.1 -0.66 0.62 l0 3.46 c0 1.16 0.52 1.54 2.24 1.54 c3.24 0 4.28 -1.3 4.78 -2.14 c0.16 -0.26 0.64 -0.2 0.64 0.18 c0 1.1 -0.84 3 -2.06 3.02 c-0.96 -0.06 -2.24 -0.12 -3.96 -0.12 c-1.84 0 -3.84 -0.06 -5.68 0.12 z">
    </path>
  </g>
</svg>
